<?xml version="1.0" encoding="UTF-8"?>
<svg width="256" height="256" viewBox="0 0 256 256" fill="none" xmlns="http://www.w3.org/2000/svg">
  <rect width="256" height="256" rx="64" fill="#4F46E5"/>
  <path d="M128 76C97.072 76 72 101.072 72 132C72 162.928 97.072 188 128 188C158.928 188 184 162.928 184 132C184 101.072 158.928 76 128 76ZM128 172C105.944 172 88 154.056 88 132C88 109.944 105.944 92 128 92C150.056 92 168 109.944 168 132C168 154.056 150.056 172 128 172Z" fill="white"/>
  <path d="M128 108C114.745 108 104 118.745 104 132C104 145.255 114.745 156 128 156C141.255 156 152 145.255 152 132C152 118.745 141.255 108 128 108ZM128 140C123.582 140 120 136.418 120 132C120 127.582 123.582 124 128 124C132.418 124 136 127.582 136 132C136 136.418 132.418 140 128 140Z" fill="white"/>
</svg>